<svg xmlns="http://www.w3.org/2000/svg" xmlns:svg="http://www.w3.org/2000/svg" id="Layer_1" width="99.16" height="98.216" data-name="Layer 1" version="1.1" viewBox="0 0 99.16 98.216"><metadata id="metadata27"/><defs id="defs4"><style id="style2">.cls-1{fill:#fff}.cls-2{fill:#6300ff}</style></defs><path id="path6" d="m 72.1,26.275958 a 22.53,22.53 0 0 0 -22.53,22.56 22.54,22.54 0 0 1 -45.07,0 45.07,45.07 0 0 1 90.13,0 22.53,22.53 0 0 0 -22.53,-22.56 z" class="cls-1" style="fill:#fff"/><path id="path8" d="m 27.03,75.865958 a 27.06,27.06 0 0 1 -27,-27 49.57,49.57 0 0 1 99.13,0 h -9 a 18.03,18.03 0 0 0 -36.06,0 27.06,27.06 0 0 1 -27.07,27 z M 49.57,8.2759581 A 40.61,40.61 0 0 0 9,48.835958 a 18.035,18.035 0 0 0 36.07,0 27.06,27.06 0 0 1 27,-27 26.78,26.78 0 0 1 9,1.54 40.48,40.48 0 0 0 -31.5,-15.0999999 z"/><path id="path10" d="m 49.57,93.715958 a 45.06,45.06 0 0 1 -45.07,-45.06 22.54,22.54 0 0 0 45.07,0 22.53,22.53 0 1 1 45.06,0 45.06,45.06 0 0 1 -45.06,45.06 z" class="cls-2" style="fill:#6300ff"/><path id="path12" d="M 49.57,98.215958 A 49.62,49.62 0 0 1 0,48.655958 h 9 a 18.035,18.035 0 0 0 36.07,0 27.03,27.03 0 1 1 54.06,0 49.62,49.62 0 0 1 -49.56,49.56 z m -31.53,-24.07 a 40.55,40.55 0 0 0 72.09,-25.49 18.03,18.03 0 1 0 -36.06,0 27.07,27.07 0 0 1 -27,27 26.78,26.78 0 0 1 -9.03,-1.51 z"/></svg>